<svg width="149" height="13" viewBox="0 0 149 13" fill="none" xmlns="http://www.w3.org/2000/svg">
<path d="M4.99219 10.1172C4.35547 10.1172 3.76758 10.0078 3.22852 9.78906C2.69336 9.57031 2.22656 9.26367 1.82812 8.86914C1.43359 8.47461 1.12695 8.00977 0.908203 7.47461C0.693359 6.93555 0.585938 6.34961 0.585938 5.7168C0.585938 5.08008 0.695312 4.49414 0.914062 3.95898C1.13281 3.41992 1.43945 2.95312 1.83398 2.55859C2.23242 2.16406 2.69922 1.85742 3.23438 1.63867C3.77344 1.41992 4.35938 1.31055 4.99219 1.31055C5.60547 1.31055 6.17773 1.42188 6.70898 1.64453C7.24414 1.86328 7.71289 2.17188 8.11523 2.57031C8.51758 2.96484 8.83203 3.42969 9.05859 3.96484C9.28516 4.5 9.39844 5.08398 9.39844 5.7168C9.39844 6.34961 9.28906 6.93555 9.07031 7.47461C8.85156 8.00977 8.54297 8.47461 8.14453 8.86914C7.75 9.26367 7.2832 9.57031 6.74414 9.78906C6.20898 10.0078 5.625 10.1172 4.99219 10.1172ZM5.17969 8.39453C4.39062 8.39453 3.79688 8.15234 3.39844 7.66797C3 7.17969 2.80078 6.5293 2.80078 5.7168C2.80078 5.19727 2.89453 4.73828 3.08203 4.33984C3.27344 3.9375 3.54883 3.62305 3.9082 3.39648C4.27148 3.16602 4.71094 3.05078 5.22656 3.05078C5.48438 3.05078 5.74023 3.08203 5.99414 3.14453C6.24805 3.20703 6.48633 3.29492 6.70898 3.4082L6.38086 4.08789C6.18555 3.98633 5.99219 3.91016 5.80078 3.85938C5.60938 3.80469 5.42188 3.77734 5.23828 3.77734C4.74219 3.77734 4.35742 3.95117 4.08398 4.29883C3.81055 4.64258 3.67383 5.11523 3.67383 5.7168C3.67383 6.3418 3.79688 6.82227 4.04297 7.1582C4.29297 7.49414 4.68555 7.66211 5.2207 7.66211C5.41602 7.66211 5.625 7.63672 5.84766 7.58594C6.07422 7.53516 6.28906 7.46875 6.49219 7.38672V8.10156C6.30078 8.1875 6.10352 8.25781 5.90039 8.3125C5.69727 8.36719 5.45703 8.39453 5.17969 8.39453ZM4.99219 9.51953C5.51172 9.51953 5.99805 9.42578 6.45117 9.23828C6.9082 9.05078 7.30859 8.78711 7.65234 8.44727C7.99609 8.10352 8.26562 7.70117 8.46094 7.24023C8.65625 6.77539 8.75391 6.26758 8.75391 5.7168C8.75391 5.19336 8.66016 4.70312 8.47266 4.24609C8.28906 3.78906 8.0293 3.38477 7.69336 3.0332C7.35742 2.68164 6.95898 2.4082 6.49805 2.21289C6.04102 2.01367 5.53906 1.91406 4.99219 1.91406C4.44531 1.91406 3.94141 2.00781 3.48047 2.19531C3.02344 2.38281 2.625 2.64844 2.28516 2.99219C1.94922 3.33203 1.6875 3.73438 1.5 4.19922C1.31641 4.66016 1.22461 5.16602 1.22461 5.7168C1.22461 6.24023 1.31641 6.73242 1.5 7.19336C1.68359 7.65039 1.94336 8.05469 2.2793 8.40625C2.61914 8.75391 3.01758 9.02734 3.47461 9.22656C3.93555 9.42188 4.44141 9.51953 4.99219 9.51953ZM19.3066 10H13.6934V9.18555L15.9844 6.85938C16.4102 6.42969 16.7676 6.04688 17.0566 5.71094C17.3496 5.375 17.5723 5.04492 17.7246 4.7207C17.877 4.39258 17.9531 4.0332 17.9531 3.64258C17.9531 3.1582 17.8086 2.78906 17.5195 2.53516C17.2344 2.27734 16.8574 2.14844 16.3887 2.14844C15.9785 2.14844 15.6152 2.21875 15.2988 2.35938C14.9824 2.5 14.6582 2.69922 14.3262 2.95703L13.8047 2.30078C14.0312 2.10938 14.2773 1.93945 14.543 1.79102C14.8125 1.64258 15.0996 1.52539 15.4043 1.43945C15.7129 1.35352 16.041 1.31055 16.3887 1.31055C16.916 1.31055 17.3711 1.40234 17.7539 1.58594C18.1367 1.76953 18.4316 2.03125 18.6387 2.37109C18.8496 2.71094 18.9551 3.11523 18.9551 3.58398C18.9551 4.03711 18.8652 4.45898 18.6855 4.84961C18.5059 5.23633 18.2539 5.62109 17.9297 6.00391C17.6055 6.38281 17.2266 6.78516 16.793 7.21094L14.9297 9.06836V9.10938H19.3066V10ZM26.2207 5.70508C26.2207 6.40039 26.168 7.02148 26.0625 7.56836C25.957 8.11523 25.791 8.57812 25.5645 8.95703C25.3379 9.33594 25.0449 9.625 24.6855 9.82422C24.3262 10.0195 23.8945 10.1172 23.3906 10.1172C22.7539 10.1172 22.2266 9.94336 21.8086 9.5957C21.3945 9.24805 21.084 8.74609 20.877 8.08984C20.6738 7.42969 20.5723 6.63477 20.5723 5.70508C20.5723 4.79102 20.6641 4.00586 20.8477 3.34961C21.0352 2.68945 21.3359 2.18359 21.75 1.83203C22.1641 1.47656 22.7109 1.29883 23.3906 1.29883C24.0352 1.29883 24.5664 1.47461 24.9844 1.82617C25.4023 2.17383 25.7129 2.67773 25.916 3.33789C26.1191 3.99414 26.2207 4.7832 26.2207 5.70508ZM21.5508 5.70508C21.5508 6.50195 21.6113 7.16602 21.7324 7.69727C21.8535 8.22852 22.0488 8.62695 22.3184 8.89258C22.5918 9.1543 22.9492 9.28516 23.3906 9.28516C23.832 9.28516 24.1875 9.1543 24.457 8.89258C24.7305 8.63086 24.9277 8.23438 25.0488 7.70312C25.1738 7.17188 25.2363 6.50586 25.2363 5.70508C25.2363 4.91992 25.1758 4.26367 25.0547 3.73633C24.9336 3.20508 24.7383 2.80664 24.4688 2.54102C24.1992 2.27148 23.8398 2.13672 23.3906 2.13672C22.9414 2.13672 22.582 2.27148 22.3125 2.54102C22.043 2.80664 21.8477 3.20508 21.7266 3.73633C21.6094 4.26367 21.5508 4.91992 21.5508 5.70508ZM33.041 10H27.4277V9.18555L29.7188 6.85938C30.1445 6.42969 30.502 6.04688 30.791 5.71094C31.084 5.375 31.3066 5.04492 31.459 4.7207C31.6113 4.39258 31.6875 4.0332 31.6875 3.64258C31.6875 3.1582 31.543 2.78906 31.2539 2.53516C30.9688 2.27734 30.5918 2.14844 30.123 2.14844C29.7129 2.14844 29.3496 2.21875 29.0332 2.35938C28.7168 2.5 28.3926 2.69922 28.0605 2.95703L27.5391 2.30078C27.7656 2.10938 28.0117 1.93945 28.2773 1.79102C28.5469 1.64258 28.834 1.52539 29.1387 1.43945C29.4473 1.35352 29.7754 1.31055 30.123 1.31055C30.6504 1.31055 31.1055 1.40234 31.4883 1.58594C31.8711 1.76953 32.166 2.03125 32.373 2.37109C32.584 2.71094 32.6895 3.11523 32.6895 3.58398C32.6895 4.03711 32.5996 4.45898 32.4199 4.84961C32.2402 5.23633 31.9883 5.62109 31.6641 6.00391C31.3398 6.38281 30.9609 6.78516 30.5273 7.21094L28.6641 9.06836V9.10938H33.041V10ZM37.916 10H36.9668V3.92969C36.9668 3.69922 36.9668 3.50195 36.9668 3.33789C36.9707 3.16992 36.9746 3.01758 36.9785 2.88086C36.9863 2.74023 36.9961 2.59766 37.0078 2.45312C36.8867 2.57812 36.7734 2.68555 36.668 2.77539C36.5625 2.86133 36.4316 2.96875 36.2754 3.09766L35.2969 3.88281L34.7871 3.2207L37.1074 1.43359H37.916V10ZM50.2324 10L49.1777 7.28125H45.7441L44.6953 10H43.6875L47.0391 1.39844H47.9355L51.2637 10H50.2324ZM48.8789 6.39648L47.877 3.69531C47.8535 3.625 47.8145 3.50977 47.7598 3.34961C47.709 3.18945 47.6562 3.02344 47.6016 2.85156C47.5469 2.67969 47.502 2.54102 47.4668 2.43555C47.4277 2.5957 47.3848 2.75586 47.3379 2.91602C47.2949 3.07227 47.252 3.21875 47.209 3.35547C47.166 3.48828 47.1289 3.60156 47.0977 3.69531L46.0781 6.39648H48.8789ZM53.2852 10H52.3066V0.882812H53.2852V10ZM56.3203 10H55.3418V0.882812H56.3203V10ZM63.9551 1.43359C64.6582 1.43359 65.2383 1.52148 65.6953 1.69727C66.1562 1.86914 66.5 2.13281 66.7266 2.48828C66.9531 2.84375 67.0664 3.29688 67.0664 3.84766C67.0664 4.30078 66.9844 4.67969 66.8203 4.98438C66.6562 5.28516 66.4414 5.5293 66.1758 5.7168C65.9102 5.9043 65.627 6.04883 65.3262 6.15039L67.6758 10H66.5156L64.418 6.42578H62.6367V10H61.6406V1.43359H63.9551ZM63.8965 2.29492H62.6367V5.58203H63.9961C64.6953 5.58203 65.209 5.43945 65.5371 5.1543C65.8691 4.86914 66.0352 4.44922 66.0352 3.89453C66.0352 3.3125 65.8594 2.90039 65.5078 2.6582C65.1602 2.41602 64.623 2.29492 63.8965 2.29492ZM69.873 3.57812V10H68.9004V3.57812H69.873ZM69.3984 1.17578C69.5586 1.17578 69.6953 1.22852 69.8086 1.33398C69.9258 1.43555 69.9844 1.5957 69.9844 1.81445C69.9844 2.0293 69.9258 2.18945 69.8086 2.29492C69.6953 2.40039 69.5586 2.45312 69.3984 2.45312C69.2305 2.45312 69.0898 2.40039 68.9766 2.29492C68.8672 2.18945 68.8125 2.0293 68.8125 1.81445C68.8125 1.5957 68.8672 1.43555 68.9766 1.33398C69.0898 1.22852 69.2305 1.17578 69.3984 1.17578ZM73.7285 12.8828C72.8848 12.8828 72.2344 12.7246 71.7773 12.4082C71.3203 12.0957 71.0918 11.6562 71.0918 11.0898C71.0918 10.6875 71.2188 10.3438 71.4727 10.0586C71.7305 9.77344 72.0859 9.58398 72.5391 9.49023C72.3711 9.41211 72.2266 9.29492 72.1055 9.13867C71.9883 8.98242 71.9297 8.80273 71.9297 8.59961C71.9297 8.36523 71.9941 8.16016 72.123 7.98438C72.2559 7.80469 72.457 7.63281 72.7266 7.46875C72.3906 7.33203 72.1172 7.10156 71.9062 6.77734C71.6992 6.44922 71.5957 6.06836 71.5957 5.63477C71.5957 5.17383 71.6914 4.78125 71.8828 4.45703C72.0742 4.12891 72.3516 3.87891 72.7148 3.70703C73.0781 3.53516 73.5176 3.44922 74.0332 3.44922C74.1465 3.44922 74.2598 3.45508 74.373 3.4668C74.4902 3.47461 74.6016 3.48828 74.707 3.50781C74.8125 3.52344 74.9043 3.54297 74.9824 3.56641H77.1855V4.19336L76.002 4.33984C76.1191 4.49219 76.2168 4.67578 76.2949 4.89062C76.373 5.10547 76.4121 5.34375 76.4121 5.60547C76.4121 6.24609 76.1953 6.75586 75.7617 7.13477C75.3281 7.50977 74.7324 7.69727 73.9746 7.69727C73.7949 7.69727 73.6113 7.68164 73.4238 7.65039C73.2324 7.75586 73.0859 7.87305 72.9844 8.00195C72.8867 8.13086 72.8379 8.2793 72.8379 8.44727C72.8379 8.57227 72.875 8.67188 72.9492 8.74609C73.0273 8.82031 73.1387 8.875 73.2832 8.91016C73.4277 8.94141 73.6016 8.95703 73.8047 8.95703H74.9355C75.6348 8.95703 76.1699 9.10352 76.541 9.39648C76.916 9.68945 77.1035 10.1172 77.1035 10.6797C77.1035 11.3906 76.8145 11.9355 76.2363 12.3145C75.6582 12.6934 74.8223 12.8828 73.7285 12.8828ZM73.7578 12.1211C74.2891 12.1211 74.7285 12.0664 75.0762 11.957C75.4277 11.8516 75.6895 11.6973 75.8613 11.4941C76.0371 11.2949 76.125 11.0566 76.125 10.7793C76.125 10.5215 76.0664 10.3262 75.9492 10.1934C75.832 10.0645 75.6602 9.97852 75.4336 9.93555C75.207 9.88867 74.9297 9.86523 74.6016 9.86523H73.4883C73.1992 9.86523 72.9473 9.91016 72.7324 10C72.5176 10.0898 72.3516 10.2227 72.2344 10.3984C72.1211 10.5742 72.0645 10.793 72.0645 11.0547C72.0645 11.4023 72.2109 11.666 72.5039 11.8457C72.7969 12.0293 73.2148 12.1211 73.7578 12.1211ZM74.0098 6.98828C74.4746 6.98828 74.8242 6.87109 75.0586 6.63672C75.293 6.40234 75.4102 6.06055 75.4102 5.61133C75.4102 5.13086 75.291 4.77148 75.0527 4.5332C74.8145 4.29102 74.4629 4.16992 73.998 4.16992C73.5527 4.16992 73.209 4.29492 72.9668 4.54492C72.7285 4.79102 72.6094 5.15234 72.6094 5.62891C72.6094 6.06641 72.7305 6.40234 72.9727 6.63672C73.2148 6.87109 73.5605 6.98828 74.0098 6.98828ZM79.4238 0.882812V3.60742C79.4238 3.76367 79.4199 3.92188 79.4121 4.08203C79.4043 4.23828 79.3906 4.38281 79.3711 4.51562H79.4355C79.5684 4.28906 79.7363 4.09961 79.9395 3.94727C80.1465 3.79102 80.3809 3.67383 80.6426 3.5957C80.9043 3.51367 81.1816 3.47266 81.4746 3.47266C81.9902 3.47266 82.4199 3.55469 82.7637 3.71875C83.1113 3.88281 83.3711 4.13672 83.543 4.48047C83.7188 4.82422 83.8066 5.26953 83.8066 5.81641V10H82.8457V5.88086C82.8457 5.3457 82.7227 4.94531 82.4766 4.67969C82.2344 4.41406 81.8613 4.28125 81.3574 4.28125C80.8809 4.28125 80.5 4.37305 80.2148 4.55664C79.9336 4.73633 79.7305 5.00195 79.6055 5.35352C79.4844 5.70508 79.4238 6.13477 79.4238 6.64258V10H78.4512V0.882812H79.4238ZM87.8848 9.32031C88.0449 9.32031 88.209 9.30664 88.377 9.2793C88.5449 9.25195 88.6816 9.21875 88.7871 9.17969V9.93555C88.6738 9.98633 88.5156 10.0293 88.3125 10.0645C88.1133 10.0996 87.918 10.1172 87.7266 10.1172C87.3867 10.1172 87.0781 10.0586 86.8008 9.94141C86.5234 9.82031 86.3008 9.61719 86.1328 9.33203C85.9688 9.04688 85.8867 8.65234 85.8867 8.14844V4.33984H84.9727V3.86523L85.8926 3.48438L86.2793 2.08984H86.8652V3.57812H88.7461V4.33984H86.8652V8.11914C86.8652 8.52148 86.957 8.82227 87.1406 9.02148C87.3281 9.2207 87.5762 9.32031 87.8848 9.32031ZM94.2422 8.24219C94.2422 8.65234 94.1387 8.99805 93.9316 9.2793C93.7285 9.55664 93.4355 9.76562 93.0527 9.90625C92.6738 10.0469 92.2207 10.1172 91.6934 10.1172C91.2441 10.1172 90.8555 10.082 90.5273 10.0117C90.1992 9.94141 89.9121 9.8418 89.666 9.71289V8.81641C89.9277 8.94531 90.2402 9.0625 90.6035 9.16797C90.9668 9.27344 91.3379 9.32617 91.7168 9.32617C92.2715 9.32617 92.6738 9.23633 92.9238 9.05664C93.1738 8.87695 93.2988 8.63281 93.2988 8.32422C93.2988 8.14844 93.248 7.99414 93.1465 7.86133C93.0488 7.72461 92.8828 7.59375 92.6484 7.46875C92.4141 7.33984 92.0898 7.19922 91.6758 7.04688C91.2656 6.89062 90.9102 6.73633 90.6094 6.58398C90.3125 6.42773 90.082 6.23828 89.918 6.01562C89.7578 5.79297 89.6777 5.50391 89.6777 5.14844C89.6777 4.60547 89.8965 4.18945 90.334 3.90039C90.7754 3.60742 91.3535 3.46094 92.0684 3.46094C92.4551 3.46094 92.8164 3.5 93.1523 3.57812C93.4922 3.65234 93.8086 3.75391 94.1016 3.88281L93.7734 4.66211C93.5078 4.54883 93.2246 4.45312 92.9238 4.375C92.623 4.29688 92.3164 4.25781 92.0039 4.25781C91.5547 4.25781 91.209 4.33203 90.9668 4.48047C90.7285 4.62891 90.6094 4.83203 90.6094 5.08984C90.6094 5.28906 90.6641 5.45312 90.7734 5.58203C90.8867 5.71094 91.0664 5.83203 91.3125 5.94531C91.5586 6.05859 91.8828 6.19141 92.2852 6.34375C92.6875 6.49219 93.0352 6.64648 93.3281 6.80664C93.6211 6.96289 93.8457 7.1543 94.002 7.38086C94.1621 7.60352 94.2422 7.89062 94.2422 8.24219ZM101.385 1.43359C102.088 1.43359 102.668 1.52148 103.125 1.69727C103.586 1.86914 103.93 2.13281 104.156 2.48828C104.383 2.84375 104.496 3.29688 104.496 3.84766C104.496 4.30078 104.414 4.67969 104.25 4.98438C104.086 5.28516 103.871 5.5293 103.605 5.7168C103.34 5.9043 103.057 6.04883 102.756 6.15039L105.105 10H103.945L101.848 6.42578H100.066V10H99.0703V1.43359H101.385ZM101.326 2.29492H100.066V5.58203H101.426C102.125 5.58203 102.639 5.43945 102.967 5.1543C103.299 4.86914 103.465 4.44922 103.465 3.89453C103.465 3.3125 103.289 2.90039 102.938 2.6582C102.59 2.41602 102.053 2.29492 101.326 2.29492ZM108.803 3.46094C109.35 3.46094 109.818 3.58203 110.209 3.82422C110.6 4.06641 110.898 4.40625 111.105 4.84375C111.312 5.27734 111.416 5.78516 111.416 6.36719V6.9707H106.98C106.992 7.72461 107.18 8.29883 107.543 8.69336C107.906 9.08789 108.418 9.28516 109.078 9.28516C109.484 9.28516 109.844 9.24805 110.156 9.17383C110.469 9.09961 110.793 8.99023 111.129 8.8457V9.70117C110.805 9.8457 110.482 9.95117 110.162 10.0176C109.846 10.084 109.471 10.1172 109.037 10.1172C108.42 10.1172 107.881 9.99219 107.42 9.74219C106.963 9.48828 106.607 9.11719 106.354 8.62891C106.1 8.14062 105.973 7.54297 105.973 6.83594C105.973 6.14453 106.088 5.54688 106.318 5.04297C106.553 4.53516 106.881 4.14453 107.303 3.87109C107.729 3.59766 108.229 3.46094 108.803 3.46094ZM108.791 4.25781C108.271 4.25781 107.857 4.42773 107.549 4.76758C107.24 5.10742 107.057 5.58203 106.998 6.19141H110.396C110.393 5.80859 110.332 5.47266 110.215 5.18359C110.102 4.89062 109.928 4.66406 109.693 4.50391C109.459 4.33984 109.158 4.25781 108.791 4.25781ZM117.223 8.24219C117.223 8.65234 117.119 8.99805 116.912 9.2793C116.709 9.55664 116.416 9.76562 116.033 9.90625C115.654 10.0469 115.201 10.1172 114.674 10.1172C114.225 10.1172 113.836 10.082 113.508 10.0117C113.18 9.94141 112.893 9.8418 112.646 9.71289V8.81641C112.908 8.94531 113.221 9.0625 113.584 9.16797C113.947 9.27344 114.318 9.32617 114.697 9.32617C115.252 9.32617 115.654 9.23633 115.904 9.05664C116.154 8.87695 116.279 8.63281 116.279 8.32422C116.279 8.14844 116.229 7.99414 116.127 7.86133C116.029 7.72461 115.863 7.59375 115.629 7.46875C115.395 7.33984 115.07 7.19922 114.656 7.04688C114.246 6.89062 113.891 6.73633 113.59 6.58398C113.293 6.42773 113.062 6.23828 112.898 6.01562C112.738 5.79297 112.658 5.50391 112.658 5.14844C112.658 4.60547 112.877 4.18945 113.314 3.90039C113.756 3.60742 114.334 3.46094 115.049 3.46094C115.436 3.46094 115.797 3.5 116.133 3.57812C116.473 3.65234 116.789 3.75391 117.082 3.88281L116.754 4.66211C116.488 4.54883 116.205 4.45312 115.904 4.375C115.604 4.29688 115.297 4.25781 114.984 4.25781C114.535 4.25781 114.189 4.33203 113.947 4.48047C113.709 4.62891 113.59 4.83203 113.59 5.08984C113.59 5.28906 113.645 5.45312 113.754 5.58203C113.867 5.71094 114.047 5.83203 114.293 5.94531C114.539 6.05859 114.863 6.19141 115.266 6.34375C115.668 6.49219 116.016 6.64648 116.309 6.80664C116.602 6.96289 116.826 7.1543 116.982 7.38086C117.143 7.60352 117.223 7.89062 117.223 8.24219ZM121.26 3.46094C121.807 3.46094 122.275 3.58203 122.666 3.82422C123.057 4.06641 123.355 4.40625 123.562 4.84375C123.77 5.27734 123.873 5.78516 123.873 6.36719V6.9707H119.438C119.449 7.72461 119.637 8.29883 120 8.69336C120.363 9.08789 120.875 9.28516 121.535 9.28516C121.941 9.28516 122.301 9.24805 122.613 9.17383C122.926 9.09961 123.25 8.99023 123.586 8.8457V9.70117C123.262 9.8457 122.939 9.95117 122.619 10.0176C122.303 10.084 121.928 10.1172 121.494 10.1172C120.877 10.1172 120.338 9.99219 119.877 9.74219C119.42 9.48828 119.064 9.11719 118.811 8.62891C118.557 8.14062 118.43 7.54297 118.43 6.83594C118.43 6.14453 118.545 5.54688 118.775 5.04297C119.01 4.53516 119.338 4.14453 119.76 3.87109C120.186 3.59766 120.686 3.46094 121.26 3.46094ZM121.248 4.25781C120.729 4.25781 120.314 4.42773 120.006 4.76758C119.697 5.10742 119.514 5.58203 119.455 6.19141H122.854C122.85 5.80859 122.789 5.47266 122.672 5.18359C122.559 4.89062 122.385 4.66406 122.15 4.50391C121.916 4.33984 121.615 4.25781 121.248 4.25781ZM128.443 3.46094C128.572 3.46094 128.707 3.46875 128.848 3.48438C128.988 3.49609 129.113 3.51367 129.223 3.53711L129.1 4.43945C128.994 4.41211 128.877 4.39062 128.748 4.375C128.619 4.35938 128.498 4.35156 128.385 4.35156C128.127 4.35156 127.883 4.4043 127.652 4.50977C127.426 4.61133 127.227 4.75977 127.055 4.95508C126.883 5.14648 126.748 5.37891 126.65 5.65234C126.553 5.92188 126.504 6.22266 126.504 6.55469V10H125.525V3.57812H126.334L126.439 4.76172H126.48C126.613 4.52344 126.773 4.30664 126.961 4.11133C127.148 3.91211 127.365 3.75391 127.611 3.63672C127.861 3.51953 128.139 3.46094 128.443 3.46094ZM131.848 10L129.41 3.57812H130.453L131.865 7.46289C131.963 7.72852 132.062 8.02148 132.164 8.3418C132.266 8.66211 132.336 8.91992 132.375 9.11523H132.416C132.463 8.91992 132.541 8.66211 132.65 8.3418C132.76 8.01758 132.859 7.72461 132.949 7.46289L134.361 3.57812H135.404L132.961 10H131.848ZM138.908 3.46094C139.455 3.46094 139.924 3.58203 140.314 3.82422C140.705 4.06641 141.004 4.40625 141.211 4.84375C141.418 5.27734 141.521 5.78516 141.521 6.36719V6.9707H137.086C137.098 7.72461 137.285 8.29883 137.648 8.69336C138.012 9.08789 138.523 9.28516 139.184 9.28516C139.59 9.28516 139.949 9.24805 140.262 9.17383C140.574 9.09961 140.898 8.99023 141.234 8.8457V9.70117C140.91 9.8457 140.588 9.95117 140.268 10.0176C139.951 10.084 139.576 10.1172 139.143 10.1172C138.525 10.1172 137.986 9.99219 137.525 9.74219C137.068 9.48828 136.713 9.11719 136.459 8.62891C136.205 8.14062 136.078 7.54297 136.078 6.83594C136.078 6.14453 136.193 5.54688 136.424 5.04297C136.658 4.53516 136.986 4.14453 137.408 3.87109C137.834 3.59766 138.334 3.46094 138.908 3.46094ZM138.896 4.25781C138.377 4.25781 137.963 4.42773 137.654 4.76758C137.346 5.10742 137.162 5.58203 137.104 6.19141H140.502C140.498 5.80859 140.438 5.47266 140.32 5.18359C140.207 4.89062 140.033 4.66406 139.799 4.50391C139.564 4.33984 139.264 4.25781 138.896 4.25781ZM145.459 10.1172C144.646 10.1172 144.002 9.83984 143.525 9.28516C143.053 8.73047 142.816 7.90625 142.816 6.8125C142.816 5.70703 143.059 4.87305 143.543 4.31055C144.027 3.74414 144.672 3.46094 145.477 3.46094C145.816 3.46094 146.113 3.50586 146.367 3.5957C146.621 3.68555 146.84 3.80664 147.023 3.95898C147.207 4.10742 147.361 4.27734 147.486 4.46875H147.557C147.541 4.34766 147.525 4.18164 147.51 3.9707C147.494 3.75977 147.486 3.58789 147.486 3.45508V0.882812H148.459V10H147.674L147.527 9.08594H147.486C147.365 9.27734 147.211 9.45117 147.023 9.60742C146.84 9.76367 146.619 9.88867 146.361 9.98242C146.107 10.0723 145.807 10.1172 145.459 10.1172ZM145.611 9.30859C146.299 9.30859 146.785 9.11328 147.07 8.72266C147.355 8.33203 147.498 7.75195 147.498 6.98242V6.80664C147.498 5.99023 147.361 5.36328 147.088 4.92578C146.818 4.48828 146.326 4.26953 145.611 4.26953C145.014 4.26953 144.566 4.5 144.27 4.96094C143.973 5.41797 143.824 6.04297 143.824 6.83594C143.824 7.625 143.971 8.23438 144.264 8.66406C144.561 9.09375 145.01 9.30859 145.611 9.30859Z" fill="#C8C8C8" fill-opacity="0.5"/>
</svg>
